<?xml version="1.0" encoding="UTF-8" standalone="no"?>
<!-- Created with Inkscape (http://www.inkscape.org/) -->

<svg
   xmlns:dc="http://purl.org/dc/elements/1.1/"
   xmlns:cc="http://creativecommons.org/ns#"
   xmlns:rdf="http://www.w3.org/1999/02/22-rdf-syntax-ns#"
   xmlns:svg="http://www.w3.org/2000/svg"
   xmlns="http://www.w3.org/2000/svg"
   xmlns:sodipodi="http://sodipodi.sourceforge.net/DTD/sodipodi-0.dtd"
   xmlns:inkscape="http://www.inkscape.org/namespaces/inkscape"
   width="580"
   height="580"
   id="svg2"
   version="1.1"
   inkscape:version="0.48.4 r9939"
   sodipodi:docname="change_logo.svg">
  <defs
     id="defs4" />
  <sodipodi:namedview
     id="base"
     pagecolor="#ffffff"
     bordercolor="#666666"
     borderopacity="1.0"
     inkscape:pageopacity="0.0"
     inkscape:pageshadow="2"
     inkscape:zoom="5.6"
     inkscape:cx="435.19457"
     inkscape:cy="530.75592"
     inkscape:document-units="px"
     inkscape:current-layer="layer1"
     showgrid="true"
     showguides="true"
     inkscape:guide-bbox="true"
     inkscape:snap-global="true"
     fit-margin-top="2.7755576e-17"
     fit-margin-left="0"
     fit-margin-right="0"
     fit-margin-bottom="0"
     inkscape:window-width="1209"
     inkscape:window-height="1036"
     inkscape:window-x="665"
     inkscape:window-y="74"
     inkscape:window-maximized="0">
    <sodipodi:guide
       orientation="0,1"
       position="69.5625,372.38783"
       id="guide2985" />
    <inkscape:grid
       type="xygrid"
       id="grid2987"
       empspacing="5"
       visible="true"
       enabled="true"
       snapvisiblegridlinesonly="true"
       originx="-120.4375px"
       originy="-557.61217px" />
    <sodipodi:guide
       orientation="1,0"
       position="279.5625,42.387832"
       id="guide2989" />
    <sodipodi:guide
       orientation="1,0"
       position="559.5625,2.3878322"
       id="guide2991" />
    <sodipodi:guide
       orientation="1,0"
       position="-0.4374999,122.38783"
       id="guide2993" />
    <sodipodi:guide
       orientation="0,1"
       position="359.5625,162.38783"
       id="guide2995" />
    <sodipodi:guide
       orientation="1,0"
       position="189.5625,212.38783"
       id="guide3007" />
    <sodipodi:guide
       orientation="1,0"
       position="379.5625,22.387832"
       id="guide3009" />
    <sodipodi:guide
       orientation="0,1"
       position="239.5625,-117.61217"
       id="guide3790" />
  </sodipodi:namedview>
  <metadata
     id="metadata7">
    <rdf:RDF>
      <cc:Work
         rdf:about="">
        <dc:format>image/svg+xml</dc:format>
        <dc:type
           rdf:resource="http://purl.org/dc/dcmitype/StillImage" />
        <dc:title />
      </cc:Work>
    </rdf:RDF>
  </metadata>
  <g
     inkscape:label="Layer 1"
     inkscape:groupmode="layer"
     id="layer1"
     transform="translate(-120.4375,85.25)">
    <text
       xml:space="preserve"
       style="font-size:493.25323486px;font-style:normal;font-variant:normal;font-weight:normal;font-stretch:normal;text-align:justify;line-height:125%;letter-spacing:0px;word-spacing:0px;writing-mode:lr-tb;text-anchor:start;fill:#700000;fill-opacity:1;stroke:none;font-family:Sans;-inkscape-font-specification:Sans"
       x="487.55096"
       y="444.34195"
       id="text3005"
       sodipodi:linespacing="125%"
       transform="scale(0.90246973,1.1080704)"><tspan
         sodipodi:role="line"
         id="tspan3007"
         x="487.55096"
         y="444.34195">¥</tspan></text>
    <text
       xml:space="preserve"
       style="font-size:486.89328003px;font-style:normal;font-variant:normal;font-weight:normal;font-stretch:normal;text-align:justify;line-height:125%;letter-spacing:0px;word-spacing:0px;writing-mode:lr-tb;text-anchor:start;fill:#2f4b58;fill-opacity:1;stroke:none;font-family:Sans;-inkscape-font-specification:Sans"
       x="62.63504"
       y="258.46512"
       id="text3001"
       sodipodi:linespacing="125%"
       transform="scale(1.2772403,0.78293802)"><tspan
         sodipodi:role="line"
         id="tspan3003"
         x="62.63504"
         y="258.46512">£</tspan></text>
    <g
       transform="matrix(8.6087197,6.9104439,-5.2974053,6.5992688,362.78317,-955.84938)"
       style="font-size:60px;font-style:normal;font-variant:normal;font-weight:normal;font-stretch:normal;text-align:justify;line-height:125%;letter-spacing:0px;word-spacing:0px;writing-mode:lr-tb;text-anchor:start;fill:#df4141;fill-opacity:1;stroke:none;font-family:Sans;-inkscape-font-specification:Sans"
       id="flowRoot2993">
      <path
         d="m 69.835937,146.24831 -2.929687,0 -0.0293,-8.81836 c -2.050796,-0.0391 -4.101576,-0.27344 -6.152344,-0.70313 -2.05079,-0.44921 -4.111335,-1.11327 -6.18164,-1.99218 l 0,-5.27344 c 1.99218,1.25001 4.003897,2.19727 6.035156,2.8418 2.050768,0.625 4.160141,0.94727 6.328125,0.96679 l 0,-13.35937 c -4.316419,-0.70311 -7.460947,-1.89451 -9.433594,-3.57422 -1.953131,-1.67967 -2.929692,-3.98435 -2.929687,-6.91406 -5e-6,-3.18357 1.064447,-5.69333 3.193359,-7.5293 2.128896,-1.8359 5.185534,-2.890586 9.169922,-3.164062 l 0,-6.884766 2.929687,0 0,6.796875 c 1.816385,0.07816 3.574195,0.273476 5.273438,0.585938 1.699192,0.293006 3.359346,0.703162 4.980469,1.230465 l 0,5.12696 c -1.621123,-0.82028 -3.291043,-1.45505 -5.009766,-1.9043 -1.699242,-0.44918 -3.447288,-0.71286 -5.244141,-0.79102 l 0,12.50977 c 4.43357,0.68361 7.695285,1.90432 9.785157,3.66211 2.089811,1.75783 3.134732,4.16017 3.134765,7.20703 -3.3e-5,3.30079 -1.113313,5.90821 -3.339843,7.82227 -2.207059,1.89453 -5.400415,2.98828 -9.580079,3.28125 l 0,8.87695 m -2.929687,-31.37695 0,-12.01172 c -2.26564,0.25394 -3.994154,0.89847 -5.185547,1.93359 -1.191417,1.03519 -1.78712,2.41214 -1.787109,4.13086 -1.1e-5,1.67971 0.546864,2.98831 1.640625,3.92578 1.113268,0.93753 2.89061,1.61135 5.332031,2.02149 m 2.929687,5.625 0,12.68554 c 2.480446,-0.33202 4.345679,-1.03515 5.595704,-2.10937 1.269504,-1.07421 1.904269,-2.49023 1.904296,-4.24805 -2.7e-5,-1.71874 -0.605495,-3.08592 -1.816406,-4.10156 -1.191431,-1.01561 -3.08596,-1.7578 -5.683594,-2.22656"
         id="path3782"
         inkscape:connector-curvature="0" />
    </g>
    <text
       xml:space="preserve"
       style="font-size:552.69238281px;font-style:normal;font-variant:normal;font-weight:normal;font-stretch:normal;text-align:justify;line-height:125%;letter-spacing:0px;word-spacing:0px;writing-mode:lr-tb;text-anchor:start;fill:#0b4e18;fill-opacity:1;stroke:none;font-family:Sans;-inkscape-font-specification:Sans"
       x="315.24393"
       y="319.38892"
       id="text3777"
       sodipodi:linespacing="125%"
       transform="scale(1.1045868,0.90531591)"><tspan
         sodipodi:role="line"
         id="tspan3779"
         x="315.24393"
         y="319.38892">€</tspan></text>
  </g>
</svg>
